<svg width="104" height="99" viewBox="0 0 104 99" fill="none" xmlns="http://www.w3.org/2000/svg">
<path d="M87.55 87.7917C87.55 93.4267 83.365 98 78.1788 98C73.0113 98 68.8075 93.4267 68.8075 87.7917C68.8075 82.1567 73.0113 77.5833 78.1788 77.5833C83.365 77.5833 87.55 82.1526 87.55 87.7917ZM78.475 0C63.3663 0 52 10.9964 52 32.6667H66.8313C66.8313 23.2587 70.2288 15.5616 78.1713 15.5616C82.8475 15.5616 87.8088 18.9426 88.2363 25.4065C88.6975 32.2093 85.36 35.6598 81.1413 40.033C70.1763 51.3847 70.5813 56.5664 70.5813 69.4167H85.3675C85.3675 63.4877 84.7788 59.1757 92.26 50.3924C97.2513 44.5288 103.457 37.2359 103.589 26.1252C103.765 9.94292 93.2725 0 78.475 0V0Z" fill="#C4B5FD"/>
<path d="M16.4868 10.2897C16.5154 4.65474 20.7236 0.102722 25.9098 0.12907C31.0772 0.155323 35.2577 4.74995 35.2291 10.3849C35.2004 16.0198 30.9735 20.5717 25.8061 20.5455C20.6199 20.5191 16.4582 15.9287 16.4868 10.2897ZM25.1157 98.1263C40.2242 98.2031 51.6462 87.2645 51.7563 65.5946L36.9252 65.5192C36.8774 74.9271 33.4409 82.6068 25.4985 82.5665C20.8223 82.5427 15.8783 79.1365 15.4836 72.6705C15.0569 65.8654 18.4119 62.432 22.6528 58.0803C33.6754 46.7845 33.2967 41.6007 33.362 28.7506L18.5759 28.6755C18.5458 34.6044 19.1126 38.9194 11.5869 47.6645C6.56589 53.5027 0.322669 60.7639 0.134974 71.8739C-0.123485 88.055 10.3184 98.0511 25.1157 98.1263V98.1263Z" fill="#C4B5FD"/>
</svg>


