<svg width="25" height="26" viewBox="0 0 25 26" fill="none" xmlns="http://www.w3.org/2000/svg">
<circle cx="12.5" cy="13.44" r="12.5" fill="#D9D9D9"/>
<path d="M12.5 17.34C12.1933 17.34 11.9333 17.2667 11.72 17.12C11.52 16.96 11.42 16.76 11.42 16.52V14.38H9.28C9.04 14.38 8.84 14.28 8.68 14.08C8.53333 13.88 8.46 13.6267 8.46 13.32C8.46 13.0133 8.53333 12.76 8.68 12.56C8.84 12.3467 9.04 12.24 9.28 12.24H11.42V10.12C11.42 9.90667 11.52 9.71333 11.72 9.54C11.9333 9.36667 12.1933 9.28 12.5 9.28C12.82 9.28 13.0733 9.36667 13.26 9.54C13.46 9.71333 13.56 9.90667 13.56 10.12V12.24H15.68C15.8933 12.24 16.08 12.3467 16.24 12.56C16.4133 12.76 16.5 13.0133 16.5 13.32C16.5 13.6267 16.4133 13.88 16.24 14.08C16.08 14.28 15.8933 14.38 15.68 14.38H13.56V16.52C13.56 16.76 13.46 16.96 13.26 17.12C13.0733 17.2667 12.82 17.34 12.5 17.34Z" fill="#737373"/>
</svg>
